<svg width="287" height="59" viewBox="0 0 287 59" fill="none" xmlns="http://www.w3.org/2000/svg">
<g clip-path="url(#clip0_13_1577)">
<path d="M30.0845 28.3115C24.1441 28.3115 19.3116 33.1441 19.3116 39.0845C19.3116 45.0249 24.1441 49.8575 30.0845 49.8575C36.0249 49.8575 40.8575 45.0249 40.8575 39.0845C40.8575 33.1441 36.0249 28.3115 30.0845 28.3115ZM34.8725 40.2815H30.0845C29.4231 40.2815 28.8875 39.746 28.8875 39.0845V34.2965C28.8875 33.635 29.4231 33.0995 30.0845 33.0995C30.746 33.0995 31.2815 33.635 31.2815 34.2965V37.8875H34.8725C35.534 37.8875 36.0695 38.423 36.0695 39.0845C36.0695 39.746 35.534 40.2815 34.8725 40.2815Z" fill="#FF3811"/>
<path d="M38.3837 12.6709C38.3837 12.0004 37.8572 11.4739 37.1867 11.4739H31.2017V15.0649C31.2017 15.7351 30.6752 16.2619 30.0047 16.2619C29.3342 16.2619 28.8077 15.7351 28.8077 15.0649V11.4739H24.0197V15.0649C24.0197 15.7351 23.4932 16.2619 22.8227 16.2619C22.1522 16.2619 21.6257 15.7351 21.6257 15.0649V11.4739H16.8378V15.0649C16.8378 15.7351 16.3113 16.2619 15.6408 16.2619C14.9703 16.2619 14.4438 15.7351 14.4438 15.0649V11.4739H9.65577V15.0649C9.65577 15.7351 9.12928 16.2619 8.45878 16.2619C7.78827 16.2619 7.26178 15.7351 7.26178 15.0649V11.4739H1.197C0.526491 11.4739 0 12.0004 0 12.6709V18.6559H38.3837V12.6709Z" fill="white"/>
<path d="M18.0347 33.0198H18.3222C18.7592 32.1706 19.2523 31.3555 19.8558 30.6258H18.0347C17.3733 30.6258 16.8378 30.0902 16.8378 29.4288C16.8378 28.7673 17.3733 28.2318 18.0347 28.2318H20.4287C20.9191 28.2318 21.3377 28.5276 21.5229 28.9494C23.8162 27.012 26.7744 25.8378 30.0047 25.8378H27.6107C26.9493 25.8378 26.4137 25.3023 26.4137 24.6408C26.4137 23.9793 26.9493 23.4438 27.6107 23.4438H30.0047C30.6662 23.4438 31.2017 23.9793 31.2017 24.6408C31.2017 25.3023 30.6662 25.8378 30.0047 25.8378C33.1852 25.8378 36.1057 26.9718 38.3837 28.8558V21.0498H0V43.7927C0 44.4542 0.535531 44.9897 1.197 44.9897H18.2913C17.3689 43.1917 16.8378 41.1606 16.8378 39.0048C16.8378 37.6871 17.074 36.4315 17.4359 35.2305C17.0846 35.0219 16.8378 34.6554 16.8378 34.2168C16.8378 33.5553 17.3733 33.0198 18.0347 33.0198ZM18.0347 23.4438H20.4287C21.0902 23.4438 21.6257 23.9793 21.6257 24.6408C21.6257 25.3023 21.0902 25.8378 20.4287 25.8378H18.0347C17.3733 25.8378 16.8378 25.3023 16.8378 24.6408C16.8378 23.9793 17.3733 23.4438 18.0347 23.4438ZM10.8528 40.2017H8.45878C7.79731 40.2017 7.26178 39.6662 7.26178 39.0048C7.26178 38.3433 7.79731 37.8078 8.45878 37.8078H10.8528C11.5142 37.8078 12.0498 38.3433 12.0498 39.0048C12.0498 39.6662 11.5142 40.2017 10.8528 40.2017ZM10.8528 35.4138H8.45878C7.79731 35.4138 7.26178 34.8782 7.26178 34.2168C7.26178 33.5553 7.79731 33.0198 8.45878 33.0198H10.8528C11.5142 33.0198 12.0498 33.5553 12.0498 34.2168C12.0498 34.8782 11.5142 35.4138 10.8528 35.4138ZM10.8528 30.6258H8.45878C7.79731 30.6258 7.26178 30.0902 7.26178 29.4288C7.26178 28.7673 7.79731 28.2318 8.45878 28.2318H10.8528C11.5142 28.2318 12.0498 28.7673 12.0498 29.4288C12.0498 30.0902 11.5142 30.6258 10.8528 30.6258ZM10.8528 25.8378H8.45878C7.79731 25.8378 7.26178 25.3023 7.26178 24.6408C7.26178 23.9793 7.79731 23.4438 8.45878 23.4438H10.8528C11.5142 23.4438 12.0498 23.9793 12.0498 24.6408C12.0498 25.3023 11.5142 25.8378 10.8528 25.8378Z" fill="white"/>
<path d="M9.65577 10.197C9.65577 9.52649 9.12928 9 8.45878 9C7.78827 9 7.26178 9.52649 7.26178 10.197V11.4738H9.65577V10.197Z" fill="white"/>
<path d="M16.8377 10.197C16.8377 9.52649 16.3113 9 15.6408 9C14.9702 9 14.4438 9.52649 14.4438 10.197V11.4738H16.8377V10.197Z" fill="white"/>
<path d="M24.0197 10.197C24.0197 9.52649 23.4932 9 22.8227 9C22.1522 9 21.6257 9.52649 21.6257 10.197V11.4738H24.0197V10.197Z" fill="white"/>
<path d="M31.2017 10.197C31.2017 9.52649 30.6752 9 30.0047 9C29.3342 9 28.8077 9.52649 28.8077 10.197V11.4738H31.2017V10.197Z" fill="white"/>
</g>
<path d="M64.4143 15L61.187 3.36364H63.0336L65.3007 12.375H65.4086L67.7666 3.36364H69.5961L71.9541 12.3807H72.062L74.3234 3.36364H76.1757L72.9427 15H71.1757L68.7268 6.28409H68.6359L66.187 15H64.4143ZM80.5421 15.1761C79.6823 15.1761 78.9418 14.9924 78.3206 14.625C77.7031 14.2538 77.2259 13.733 76.8887 13.0625C76.5554 12.3883 76.3887 11.5985 76.3887 10.6932C76.3887 9.79924 76.5554 9.01136 76.8887 8.32955C77.2259 7.64773 77.6956 7.11553 78.2978 6.73295C78.9039 6.35038 79.6122 6.15909 80.4228 6.15909C80.9152 6.15909 81.3925 6.24053 81.8546 6.40341C82.3168 6.56629 82.7315 6.82197 83.099 7.17045C83.4664 7.51894 83.7562 7.97159 83.9683 8.52841C84.1804 9.08144 84.2865 9.75379 84.2865 10.5455V11.1477H77.349V9.875H82.6217C82.6217 9.42803 82.5308 9.0322 82.349 8.6875C82.1671 8.33902 81.9115 8.06439 81.5819 7.86364C81.2562 7.66288 80.8736 7.5625 80.4342 7.5625C79.9569 7.5625 79.5402 7.67992 79.1842 7.91477C78.8319 8.14583 78.5592 8.44886 78.366 8.82386C78.1766 9.19508 78.0819 9.59848 78.0819 10.0341V11.0284C78.0819 11.6117 78.1842 12.108 78.3887 12.517C78.5971 12.9261 78.8868 13.2386 79.2581 13.4545C79.6293 13.6667 80.063 13.7727 80.5592 13.7727C80.8812 13.7727 81.1747 13.7273 81.4399 13.6364C81.705 13.5417 81.9342 13.4015 82.1274 13.2159C82.3206 13.0303 82.4683 12.8011 82.5706 12.5284L84.1785 12.8182C84.0497 13.2917 83.8187 13.7064 83.4853 14.0625C83.1558 14.4148 82.741 14.6894 82.241 14.8864C81.7448 15.0795 81.1785 15.1761 80.5421 15.1761ZM92.9456 15.1932C92.3925 15.1932 91.8925 15.0909 91.4456 14.8864C90.9986 14.678 90.6444 14.3769 90.3831 13.983C90.1255 13.589 89.9967 13.1061 89.9967 12.5341C89.9967 12.0417 90.0914 11.6364 90.2808 11.3182C90.4702 11 90.7259 10.7481 91.0478 10.5625C91.3698 10.3769 91.7296 10.2367 92.1274 10.142C92.5251 10.0473 92.9304 9.97538 93.3433 9.92614C93.866 9.86553 94.2902 9.81629 94.616 9.77841C94.9418 9.73674 95.1785 9.67045 95.3262 9.57955C95.474 9.48864 95.5478 9.34091 95.5478 9.13636V9.09659C95.5478 8.60038 95.4077 8.21591 95.1274 7.94318C94.8509 7.67045 94.438 7.53409 93.8887 7.53409C93.3168 7.53409 92.866 7.66098 92.5365 7.91477C92.2107 8.16477 91.9853 8.44318 91.8603 8.75L90.2637 8.38636C90.4531 7.85606 90.7296 7.42803 91.0933 7.10227C91.4607 6.77273 91.8831 6.53409 92.3603 6.38636C92.8376 6.23485 93.3395 6.15909 93.866 6.15909C94.2145 6.15909 94.5838 6.20076 94.974 6.28409C95.3679 6.36364 95.7353 6.51136 96.0762 6.72727C96.4209 6.94318 96.7031 7.25189 96.9228 7.65341C97.1425 8.05114 97.2524 8.56818 97.2524 9.20455V15H95.5933V13.8068H95.5251C95.4152 14.0265 95.2505 14.2424 95.0308 14.4545C94.8111 14.6667 94.5289 14.8428 94.1842 14.983C93.8395 15.1231 93.4266 15.1932 92.9456 15.1932ZM93.3149 13.8295C93.7846 13.8295 94.1861 13.7367 94.5194 13.5511C94.8565 13.3655 95.1122 13.1231 95.2865 12.8239C95.4645 12.5208 95.5535 12.197 95.5535 11.8523V10.7273C95.4929 10.7879 95.3755 10.8447 95.2012 10.8977C95.0308 10.947 94.8357 10.9905 94.616 11.0284C94.3963 11.0625 94.1823 11.0947 93.974 11.125C93.7656 11.1515 93.5914 11.1742 93.4512 11.1932C93.1217 11.2348 92.8206 11.3049 92.5478 11.4034C92.2789 11.5019 92.063 11.6439 91.9001 11.8295C91.741 12.0114 91.6615 12.2538 91.6615 12.5568C91.6615 12.9773 91.8168 13.2955 92.1274 13.5114C92.438 13.7235 92.8338 13.8295 93.3149 13.8295ZM99.5152 15V6.27273H101.157V7.65909H101.248C101.407 7.18939 101.688 6.82008 102.089 6.55114C102.494 6.27841 102.953 6.14205 103.464 6.14205C103.57 6.14205 103.695 6.14583 103.839 6.15341C103.987 6.16098 104.102 6.17045 104.186 6.18182V7.80682C104.117 7.78788 103.996 7.76705 103.822 7.74432C103.648 7.7178 103.473 7.70455 103.299 7.70455C102.898 7.70455 102.54 7.78977 102.225 7.96023C101.915 8.12689 101.669 8.35985 101.487 8.65909C101.305 8.95455 101.214 9.29167 101.214 9.67045V15H99.5152ZM109.105 15.1761C108.245 15.1761 107.504 14.9924 106.883 14.625C106.266 14.2538 105.788 13.733 105.451 13.0625C105.118 12.3883 104.951 11.5985 104.951 10.6932C104.951 9.79924 105.118 9.01136 105.451 8.32955C105.788 7.64773 106.258 7.11553 106.86 6.73295C107.466 6.35038 108.175 6.15909 108.985 6.15909C109.478 6.15909 109.955 6.24053 110.417 6.40341C110.879 6.56629 111.294 6.82197 111.661 7.17045C112.029 7.51894 112.319 7.97159 112.531 8.52841C112.743 9.08144 112.849 9.75379 112.849 10.5455V11.1477H105.911V9.875H111.184C111.184 9.42803 111.093 9.0322 110.911 8.6875C110.73 8.33902 110.474 8.06439 110.144 7.86364C109.819 7.66288 109.436 7.5625 108.997 7.5625C108.519 7.5625 108.103 7.67992 107.747 7.91477C107.394 8.14583 107.122 8.44886 106.929 8.82386C106.739 9.19508 106.644 9.59848 106.644 10.0341V11.0284C106.644 11.6117 106.747 12.108 106.951 12.517C107.16 12.9261 107.449 13.2386 107.821 13.4545C108.192 13.6667 108.625 13.7727 109.122 13.7727C109.444 13.7727 109.737 13.7273 110.002 13.6364C110.268 13.5417 110.497 13.4015 110.69 13.2159C110.883 13.0303 111.031 12.8011 111.133 12.5284L112.741 12.8182C112.612 13.2917 112.381 13.7064 112.048 14.0625C111.718 14.4148 111.304 14.6894 110.804 14.8864C110.307 15.0795 109.741 15.1761 109.105 15.1761ZM122.644 15.1761C121.826 15.1761 121.112 14.9886 120.502 14.6136C119.893 14.2386 119.419 13.714 119.082 13.0398C118.745 12.3655 118.576 11.5777 118.576 10.6761C118.576 9.77083 118.745 8.97917 119.082 8.30114C119.419 7.62311 119.893 7.09659 120.502 6.72159C121.112 6.34659 121.826 6.15909 122.644 6.15909C123.463 6.15909 124.177 6.34659 124.786 6.72159C125.396 7.09659 125.87 7.62311 126.207 8.30114C126.544 8.97917 126.713 9.77083 126.713 10.6761C126.713 11.5777 126.544 12.3655 126.207 13.0398C125.87 13.714 125.396 14.2386 124.786 14.6136C124.177 14.9886 123.463 15.1761 122.644 15.1761ZM122.65 13.75C123.18 13.75 123.62 13.6098 123.968 13.3295C124.317 13.0492 124.574 12.6761 124.741 12.2102C124.911 11.7443 124.997 11.2311 124.997 10.6705C124.997 10.1136 124.911 9.60227 124.741 9.13636C124.574 8.66667 124.317 8.28977 123.968 8.00568C123.62 7.72159 123.18 7.57955 122.65 7.57955C122.116 7.57955 121.673 7.72159 121.321 8.00568C120.972 8.28977 120.713 8.66667 120.542 9.13636C120.375 9.60227 120.292 10.1136 120.292 10.6705C120.292 11.2311 120.375 11.7443 120.542 12.2102C120.713 12.6761 120.972 13.0492 121.321 13.3295C121.673 13.6098 122.116 13.75 122.65 13.75ZM128.609 18.2727V6.27273H130.268V7.6875H130.41C130.509 7.50568 130.651 7.29545 130.836 7.05682C131.022 6.81818 131.279 6.60985 131.609 6.43182C131.938 6.25 132.374 6.15909 132.916 6.15909C133.62 6.15909 134.249 6.33712 134.802 6.69318C135.355 7.04924 135.789 7.5625 136.103 8.23295C136.421 8.90341 136.58 9.71023 136.58 10.6534C136.58 11.5966 136.423 12.4053 136.109 13.0795C135.795 13.75 135.363 14.267 134.813 14.6307C134.264 14.9905 133.637 15.1705 132.933 15.1705C132.402 15.1705 131.969 15.0814 131.632 14.9034C131.298 14.7254 131.037 14.517 130.848 14.2784C130.658 14.0398 130.512 13.8277 130.41 13.642H130.308V18.2727H128.609ZM130.274 10.6364C130.274 11.25 130.363 11.7879 130.541 12.25C130.719 12.7121 130.976 13.0739 131.313 13.3352C131.651 13.5928 132.063 13.7216 132.552 13.7216C133.06 13.7216 133.484 13.5871 133.825 13.3182C134.166 13.0455 134.423 12.6761 134.598 12.2102C134.776 11.7443 134.865 11.2197 134.865 10.6364C134.865 10.0606 134.777 9.54356 134.603 9.08523C134.433 8.62689 134.175 8.26515 133.83 8C133.49 7.73485 133.063 7.60227 132.552 7.60227C132.06 7.60227 131.643 7.72917 131.302 7.98295C130.965 8.23674 130.709 8.59091 130.535 9.04545C130.361 9.5 130.274 10.0303 130.274 10.6364ZM142.245 15.1761C141.385 15.1761 140.645 14.9924 140.024 14.625C139.406 14.2538 138.929 13.733 138.592 13.0625C138.259 12.3883 138.092 11.5985 138.092 10.6932C138.092 9.79924 138.259 9.01136 138.592 8.32955C138.929 7.64773 139.399 7.11553 140.001 6.73295C140.607 6.35038 141.315 6.15909 142.126 6.15909C142.618 6.15909 143.096 6.24053 143.558 6.40341C144.02 6.56629 144.435 6.82197 144.802 7.17045C145.17 7.51894 145.459 7.97159 145.671 8.52841C145.884 9.08144 145.99 9.75379 145.99 10.5455V11.1477H139.052V9.875H144.325C144.325 9.42803 144.234 9.0322 144.052 8.6875C143.87 8.33902 143.615 8.06439 143.285 7.86364C142.959 7.66288 142.577 7.5625 142.137 7.5625C141.66 7.5625 141.243 7.67992 140.887 7.91477C140.535 8.14583 140.262 8.44886 140.069 8.82386C139.88 9.19508 139.785 9.59848 139.785 10.0341V11.0284C139.785 11.6117 139.887 12.108 140.092 12.517C140.3 12.9261 140.59 13.2386 140.961 13.4545C141.332 13.6667 141.766 13.7727 142.262 13.7727C142.584 13.7727 142.878 13.7273 143.143 13.6364C143.408 13.5417 143.637 13.4015 143.83 13.2159C144.024 13.0303 144.171 12.8011 144.274 12.5284L145.882 12.8182C145.753 13.2917 145.522 13.7064 145.188 14.0625C144.859 14.4148 144.444 14.6894 143.944 14.8864C143.448 15.0795 142.882 15.1761 142.245 15.1761ZM149.573 9.81818V15H147.875V6.27273H149.505V7.69318H149.613C149.814 7.23106 150.128 6.85985 150.556 6.57955C150.988 6.29924 151.532 6.15909 152.187 6.15909C152.782 6.15909 153.303 6.28409 153.75 6.53409C154.196 6.7803 154.543 7.14773 154.789 7.63636C155.036 8.125 155.159 8.72917 155.159 9.44886V15H153.46V9.65341C153.46 9.02083 153.295 8.52652 152.965 8.17045C152.636 7.81061 152.183 7.63068 151.607 7.63068C151.214 7.63068 150.863 7.71591 150.556 7.88636C150.253 8.05682 150.013 8.30682 149.835 8.63636C149.661 8.96212 149.573 9.35606 149.573 9.81818ZM161.671 15V6.27273H163.302V7.69318H163.41C163.592 7.21212 163.889 6.83712 164.302 6.56818C164.715 6.29545 165.209 6.15909 165.785 6.15909C166.368 6.15909 166.857 6.29545 167.251 6.56818C167.649 6.84091 167.942 7.21591 168.132 7.69318H168.223C168.431 7.22727 168.762 6.85606 169.217 6.57955C169.671 6.29924 170.213 6.15909 170.842 6.15909C171.634 6.15909 172.279 6.4072 172.779 6.90341C173.283 7.39962 173.535 8.14773 173.535 9.14773V15H171.836V9.30682C171.836 8.71591 171.675 8.28788 171.353 8.02273C171.031 7.75758 170.647 7.625 170.2 7.625C169.647 7.625 169.217 7.79545 168.91 8.13636C168.603 8.47348 168.45 8.9072 168.45 9.4375V15H166.757V9.19886C166.757 8.72538 166.609 8.3447 166.313 8.05682C166.018 7.76894 165.634 7.625 165.16 7.625C164.838 7.625 164.541 7.71023 164.268 7.88068C163.999 8.04735 163.781 8.2803 163.615 8.57955C163.452 8.87879 163.37 9.22538 163.37 9.61932V15H161.671ZM179.488 15.1761C178.67 15.1761 177.956 14.9886 177.346 14.6136C176.736 14.2386 176.263 13.714 175.926 13.0398C175.589 12.3655 175.42 11.5777 175.42 10.6761C175.42 9.77083 175.589 8.97917 175.926 8.30114C176.263 7.62311 176.736 7.09659 177.346 6.72159C177.956 6.34659 178.67 6.15909 179.488 6.15909C180.306 6.15909 181.02 6.34659 181.63 6.72159C182.24 7.09659 182.714 7.62311 183.051 8.30114C183.388 8.97917 183.556 9.77083 183.556 10.6761C183.556 11.5777 183.388 12.3655 183.051 13.0398C182.714 13.714 182.24 14.2386 181.63 14.6136C181.02 14.9886 180.306 15.1761 179.488 15.1761ZM179.494 13.75C180.024 13.75 180.464 13.6098 180.812 13.3295C181.161 13.0492 181.418 12.6761 181.585 12.2102C181.755 11.7443 181.84 11.2311 181.84 10.6705C181.84 10.1136 181.755 9.60227 181.585 9.13636C181.418 8.66667 181.161 8.28977 180.812 8.00568C180.464 7.72159 180.024 7.57955 179.494 7.57955C178.96 7.57955 178.517 7.72159 178.164 8.00568C177.816 8.28977 177.556 8.66667 177.386 9.13636C177.219 9.60227 177.136 10.1136 177.136 10.6705C177.136 11.2311 177.219 11.7443 177.386 12.2102C177.556 12.6761 177.816 13.0492 178.164 13.3295C178.517 13.6098 178.96 13.75 179.494 13.75ZM187.152 9.81818V15H185.453V6.27273H187.083V7.69318H187.191C187.392 7.23106 187.706 6.85985 188.134 6.57955C188.566 6.29924 189.11 6.15909 189.765 6.15909C190.36 6.15909 190.881 6.28409 191.328 6.53409C191.775 6.7803 192.121 7.14773 192.367 7.63636C192.614 8.125 192.737 8.72917 192.737 9.44886V15H191.038V9.65341C191.038 9.02083 190.873 8.52652 190.544 8.17045C190.214 7.81061 189.761 7.63068 189.186 7.63068C188.792 7.63068 188.441 7.71591 188.134 7.88636C187.831 8.05682 187.591 8.30682 187.413 8.63636C187.239 8.96212 187.152 9.35606 187.152 9.81818ZM198.282 15.1705C197.578 15.1705 196.949 14.9905 196.396 14.6307C195.847 14.267 195.415 13.75 195.1 13.0795C194.79 12.4053 194.634 11.5966 194.634 10.6534C194.634 9.71023 194.792 8.90341 195.106 8.23295C195.424 7.5625 195.86 7.04924 196.413 6.69318C196.966 6.33712 197.593 6.15909 198.294 6.15909C198.835 6.15909 199.271 6.25 199.6 6.43182C199.934 6.60985 200.191 6.81818 200.373 7.05682C200.559 7.29545 200.703 7.50568 200.805 7.6875H200.907V3.36364H202.606V15H200.947V13.642H200.805C200.703 13.8277 200.555 14.0398 200.362 14.2784C200.172 14.517 199.911 14.7254 199.578 14.9034C199.244 15.0814 198.813 15.1705 198.282 15.1705ZM198.657 13.7216C199.146 13.7216 199.559 13.5928 199.896 13.3352C200.237 13.0739 200.494 12.7121 200.669 12.25C200.847 11.7879 200.936 11.25 200.936 10.6364C200.936 10.0303 200.848 9.5 200.674 9.04545C200.5 8.59091 200.244 8.23674 199.907 7.98295C199.57 7.72917 199.153 7.60227 198.657 7.60227C198.146 7.60227 197.72 7.73485 197.379 8C197.038 8.26515 196.78 8.62689 196.606 9.08523C196.436 9.54356 196.35 10.0606 196.35 10.6364C196.35 11.2197 196.438 11.7443 196.612 12.2102C196.786 12.6761 197.044 13.0455 197.384 13.3182C197.729 13.5871 198.153 13.7216 198.657 13.7216ZM207.571 15.1932C207.018 15.1932 206.518 15.0909 206.071 14.8864C205.624 14.678 205.269 14.3769 205.008 13.983C204.75 13.589 204.622 13.1061 204.622 12.5341C204.622 12.0417 204.716 11.6364 204.906 11.3182C205.095 11 205.351 10.7481 205.673 10.5625C205.995 10.3769 206.355 10.2367 206.752 10.142C207.15 10.0473 207.555 9.97538 207.968 9.92614C208.491 9.86553 208.915 9.81629 209.241 9.77841C209.567 9.73674 209.804 9.67045 209.951 9.57955C210.099 9.48864 210.173 9.34091 210.173 9.13636V9.09659C210.173 8.60038 210.033 8.21591 209.752 7.94318C209.476 7.67045 209.063 7.53409 208.514 7.53409C207.942 7.53409 207.491 7.66098 207.161 7.91477C206.836 8.16477 206.61 8.44318 206.485 8.75L204.889 8.38636C205.078 7.85606 205.355 7.42803 205.718 7.10227C206.086 6.77273 206.508 6.53409 206.985 6.38636C207.463 6.23485 207.964 6.15909 208.491 6.15909C208.839 6.15909 209.209 6.20076 209.599 6.28409C209.993 6.36364 210.36 6.51136 210.701 6.72727C211.046 6.94318 211.328 7.25189 211.548 7.65341C211.768 8.05114 211.877 8.56818 211.877 9.20455V15H210.218V13.8068H210.15C210.04 14.0265 209.875 14.2424 209.656 14.4545C209.436 14.6667 209.154 14.8428 208.809 14.983C208.464 15.1231 208.052 15.1932 207.571 15.1932ZM207.94 13.8295C208.41 13.8295 208.811 13.7367 209.144 13.5511C209.482 13.3655 209.737 13.1231 209.911 12.8239C210.089 12.5208 210.179 12.197 210.179 11.8523V10.7273C210.118 10.7879 210 10.8447 209.826 10.8977C209.656 10.947 209.461 10.9905 209.241 11.0284C209.021 11.0625 208.807 11.0947 208.599 11.125C208.391 11.1515 208.216 11.1742 208.076 11.1932C207.747 11.2348 207.446 11.3049 207.173 11.4034C206.904 11.5019 206.688 11.6439 206.525 11.8295C206.366 12.0114 206.286 12.2538 206.286 12.5568C206.286 12.9773 206.442 13.2955 206.752 13.5114C207.063 13.7235 207.459 13.8295 207.94 13.8295ZM214.902 18.2727C214.648 18.2727 214.417 18.2519 214.208 18.2102C214 18.1723 213.845 18.1307 213.742 18.0852L214.152 16.6932C214.462 16.7765 214.739 16.8125 214.981 16.8011C215.223 16.7898 215.438 16.6989 215.623 16.5284C215.813 16.358 215.979 16.0795 216.123 15.6932L216.333 15.1136L213.14 6.27273H214.958L217.169 13.0455H217.259L219.47 6.27273H221.294L217.697 16.1648C217.53 16.6193 217.318 17.0038 217.061 17.3182C216.803 17.6364 216.496 17.875 216.14 18.0341C215.784 18.1932 215.371 18.2727 214.902 18.2727ZM228.032 9.34659V10.8182H222.873V9.34659H228.032ZM234.45 6.27273V7.63636H229.518V6.27273H234.45ZM230.87 15V5.26136C230.87 4.71591 230.99 4.26326 231.228 3.90341C231.467 3.53977 231.783 3.26894 232.177 3.09091C232.571 2.90909 232.999 2.81818 233.461 2.81818C233.802 2.81818 234.094 2.84659 234.336 2.90341C234.579 2.95644 234.759 3.00568 234.876 3.05114L234.478 4.42614C234.399 4.40341 234.296 4.37689 234.171 4.34659C234.046 4.3125 233.895 4.29545 233.717 4.29545C233.304 4.29545 233.009 4.39773 232.83 4.60227C232.656 4.80682 232.569 5.10227 232.569 5.48864V15H230.87ZM236.203 15V6.27273H237.845V7.65909H237.936C238.095 7.18939 238.375 6.82008 238.777 6.55114C239.182 6.27841 239.64 6.14205 240.152 6.14205C240.258 6.14205 240.383 6.14583 240.527 6.15341C240.674 6.16098 240.79 6.17045 240.873 6.18182V7.80682C240.805 7.78788 240.684 7.76705 240.509 7.74432C240.335 7.7178 240.161 7.70455 239.987 7.70455C239.585 7.70455 239.227 7.78977 238.913 7.96023C238.602 8.12689 238.356 8.35985 238.174 8.65909C237.992 8.95455 237.902 9.29167 237.902 9.67045V15H236.203ZM242.343 15V6.27273H244.042V15H242.343ZM243.201 4.92614C242.906 4.92614 242.652 4.82765 242.44 4.63068C242.232 4.42992 242.127 4.19129 242.127 3.91477C242.127 3.63447 242.232 3.39583 242.44 3.19886C242.652 2.99811 242.906 2.89773 243.201 2.89773C243.497 2.89773 243.749 2.99811 243.957 3.19886C244.169 3.39583 244.275 3.63447 244.275 3.91477C244.275 4.19129 244.169 4.42992 243.957 4.63068C243.749 4.82765 243.497 4.92614 243.201 4.92614ZM249.595 15.1705C248.89 15.1705 248.261 14.9905 247.708 14.6307C247.159 14.267 246.727 13.75 246.413 13.0795C246.102 12.4053 245.947 11.5966 245.947 10.6534C245.947 9.71023 246.104 8.90341 246.419 8.23295C246.737 7.5625 247.172 7.04924 247.725 6.69318C248.278 6.33712 248.905 6.15909 249.606 6.15909C250.148 6.15909 250.583 6.25 250.913 6.43182C251.246 6.60985 251.504 6.81818 251.686 7.05682C251.871 7.29545 252.015 7.50568 252.117 7.6875H252.22V3.36364H253.919V15H252.259V13.642H252.117C252.015 13.8277 251.867 14.0398 251.674 14.2784C251.485 14.517 251.223 14.7254 250.89 14.9034C250.557 15.0814 250.125 15.1705 249.595 15.1705ZM249.97 13.7216C250.458 13.7216 250.871 13.5928 251.208 13.3352C251.549 13.0739 251.807 12.7121 251.981 12.25C252.159 11.7879 252.248 11.25 252.248 10.6364C252.248 10.0303 252.161 9.5 251.987 9.04545C251.813 8.59091 251.557 8.23674 251.22 7.98295C250.883 7.72917 250.466 7.60227 249.97 7.60227C249.458 7.60227 249.032 7.73485 248.691 8C248.35 8.26515 248.093 8.62689 247.919 9.08523C247.748 9.54356 247.663 10.0606 247.663 10.6364C247.663 11.2197 247.75 11.7443 247.924 12.2102C248.098 12.6761 248.356 13.0455 248.697 13.3182C249.042 13.5871 249.466 13.7216 249.97 13.7216ZM258.883 15.1932C258.33 15.1932 257.83 15.0909 257.383 14.8864C256.936 14.678 256.582 14.3769 256.321 13.983C256.063 13.589 255.934 13.1061 255.934 12.5341C255.934 12.0417 256.029 11.6364 256.218 11.3182C256.408 11 256.663 10.7481 256.985 10.5625C257.307 10.3769 257.667 10.2367 258.065 10.142C258.463 10.0473 258.868 9.97538 259.281 9.92614C259.804 9.86553 260.228 9.81629 260.554 9.77841C260.879 9.73674 261.116 9.67045 261.264 9.57955C261.411 9.48864 261.485 9.34091 261.485 9.13636V9.09659C261.485 8.60038 261.345 8.21591 261.065 7.94318C260.788 7.67045 260.375 7.53409 259.826 7.53409C259.254 7.53409 258.804 7.66098 258.474 7.91477C258.148 8.16477 257.923 8.44318 257.798 8.75L256.201 8.38636C256.391 7.85606 256.667 7.42803 257.031 7.10227C257.398 6.77273 257.821 6.53409 258.298 6.38636C258.775 6.23485 259.277 6.15909 259.804 6.15909C260.152 6.15909 260.521 6.20076 260.911 6.28409C261.305 6.36364 261.673 6.51136 262.014 6.72727C262.358 6.94318 262.641 7.25189 262.86 7.65341C263.08 8.05114 263.19 8.56818 263.19 9.20455V15H261.531V13.8068H261.463C261.353 14.0265 261.188 14.2424 260.968 14.4545C260.749 14.6667 260.466 14.8428 260.122 14.983C259.777 15.1231 259.364 15.1932 258.883 15.1932ZM259.252 13.8295C259.722 13.8295 260.124 13.7367 260.457 13.5511C260.794 13.3655 261.05 13.1231 261.224 12.8239C261.402 12.5208 261.491 12.197 261.491 11.8523V10.7273C261.43 10.7879 261.313 10.8447 261.139 10.8977C260.968 10.947 260.773 10.9905 260.554 11.0284C260.334 11.0625 260.12 11.0947 259.911 11.125C259.703 11.1515 259.529 11.1742 259.389 11.1932C259.059 11.2348 258.758 11.3049 258.485 11.4034C258.216 11.5019 258 11.6439 257.838 11.8295C257.679 12.0114 257.599 12.2538 257.599 12.5568C257.599 12.9773 257.754 13.2955 258.065 13.5114C258.375 13.7235 258.771 13.8295 259.252 13.8295ZM266.214 18.2727C265.96 18.2727 265.729 18.2519 265.521 18.2102C265.313 18.1723 265.157 18.1307 265.055 18.0852L265.464 16.6932C265.775 16.7765 266.051 16.8125 266.294 16.8011C266.536 16.7898 266.75 16.6989 266.936 16.5284C267.125 16.358 267.292 16.0795 267.436 15.6932L267.646 15.1136L264.453 6.27273H266.271L268.481 13.0455H268.572L270.782 6.27273H272.606L269.009 16.1648C268.843 16.6193 268.631 17.0038 268.373 17.3182C268.116 17.6364 267.809 17.875 267.453 18.0341C267.097 18.1932 266.684 18.2727 266.214 18.2727Z" fill="white"/>
<path d="M63.0503 53L70.5876 38.0852V37.9609H61.8074V34.8182H74.5649V38.0053L67.0187 53H63.0503ZM78.591 50.8871C78.005 50.8871 77.502 50.6799 77.0817 50.2656C76.6674 49.8513 76.4603 49.3482 76.4603 48.7564C76.4603 48.1764 76.6674 47.6792 77.0817 47.2649C77.502 46.8506 78.005 46.6435 78.591 46.6435C79.1592 46.6435 79.6563 46.8506 80.0824 47.2649C80.5086 47.6792 80.7217 48.1764 80.7217 48.7564C80.7217 49.147 80.621 49.5051 80.4198 49.8306C80.2245 50.1502 79.967 50.4077 79.6474 50.603C79.3278 50.7924 78.9757 50.8871 78.591 50.8871ZM78.591 41.9648C78.005 41.9648 77.502 41.7577 77.0817 41.3434C76.6674 40.9291 76.4603 40.426 76.4603 39.8342C76.4603 39.2541 76.6674 38.7599 77.0817 38.3516C77.502 37.9373 78.005 37.7301 78.591 37.7301C79.1592 37.7301 79.6563 37.9373 80.0824 38.3516C80.5086 38.7599 80.7217 39.2541 80.7217 39.8342C80.7217 40.2307 80.621 40.5917 80.4198 40.9173C80.2245 41.2369 79.967 41.4914 79.6474 41.6808C79.3278 41.8701 78.9757 41.9648 78.591 41.9648ZM90.9201 53.3995C89.3931 53.3936 88.0792 53.0178 86.9783 52.272C85.8834 51.5263 85.04 50.4461 84.4481 49.0316C83.8622 47.6171 83.5722 45.9155 83.5781 43.9268C83.5781 41.9441 83.8711 40.2544 84.457 38.8576C85.0489 37.4608 85.8923 36.3984 86.9872 35.6705C88.088 34.9366 89.399 34.5696 90.9201 34.5696C92.4411 34.5696 93.7491 34.9366 94.8441 35.6705C95.9449 36.4044 96.7913 37.4697 97.3831 38.8665C97.975 40.2573 98.268 41.9441 98.262 43.9268C98.262 45.9214 97.9661 47.6259 97.3743 49.0405C96.7883 50.455 95.9479 51.5352 94.853 52.2809C93.758 53.0266 92.4471 53.3995 90.9201 53.3995ZM90.9201 50.2124C91.9617 50.2124 92.7933 49.6886 93.4147 48.641C94.0362 47.5934 94.344 46.022 94.338 43.9268C94.338 42.5478 94.196 41.3996 93.9119 40.4822C93.6337 39.5649 93.2372 38.8754 92.7223 38.4137C92.2133 37.9521 91.6125 37.7212 90.9201 37.7212C89.8843 37.7212 89.0557 38.2391 88.4343 39.2749C87.8128 40.3106 87.4991 41.8613 87.4932 43.9268C87.4932 45.3236 87.6323 46.4896 87.9105 47.4247C88.1946 48.3539 88.5941 49.0523 89.109 49.5199C89.6239 49.9815 90.2276 50.2124 90.9201 50.2124ZM108.132 53.3995C106.605 53.3936 105.291 53.0178 104.19 52.272C103.095 51.5263 102.252 50.4461 101.66 49.0316C101.074 47.6171 100.784 45.9155 100.79 43.9268C100.79 41.9441 101.083 40.2544 101.669 38.8576C102.261 37.4608 103.104 36.3984 104.199 35.6705C105.3 34.9366 106.611 34.5696 108.132 34.5696C109.653 34.5696 110.961 34.9366 112.056 35.6705C113.157 36.4044 114.003 37.4697 114.595 38.8665C115.187 40.2573 115.48 41.9441 115.474 43.9268C115.474 45.9214 115.178 47.6259 114.586 49.0405C114 50.455 113.16 51.5352 112.065 52.2809C110.97 53.0266 109.659 53.3995 108.132 53.3995ZM108.132 50.2124C109.174 50.2124 110.005 49.6886 110.627 48.641C111.248 47.5934 111.556 46.022 111.55 43.9268C111.55 42.5478 111.408 41.3996 111.124 40.4822C110.846 39.5649 110.449 38.8754 109.934 38.4137C109.425 37.9521 108.824 37.7212 108.132 37.7212C107.096 37.7212 106.268 38.2391 105.646 39.2749C105.025 40.3106 104.711 41.8613 104.705 43.9268C104.705 45.3236 104.844 46.4896 105.122 47.4247C105.406 48.3539 105.806 49.0523 106.321 49.5199C106.836 49.9815 107.44 50.2124 108.132 50.2124ZM127.925 53.2575C127.055 53.2575 126.28 53.1065 125.599 52.8047C124.919 52.4969 124.38 52.0442 123.983 51.4464C123.593 50.8427 123.397 50.091 123.397 49.1914C123.397 48.4338 123.537 47.7976 123.815 47.2827C124.093 46.7678 124.472 46.3535 124.951 46.0398C125.43 45.7261 125.975 45.4893 126.585 45.3295C127.2 45.1697 127.845 45.0573 128.52 44.9922C129.313 44.9093 129.952 44.8324 130.438 44.7614C130.923 44.6844 131.275 44.572 131.494 44.424C131.713 44.276 131.823 44.0571 131.823 43.767V43.7138C131.823 43.1515 131.645 42.7165 131.29 42.4087C130.941 42.101 130.443 41.9471 129.798 41.9471C129.118 41.9471 128.576 42.098 128.174 42.3999C127.771 42.6958 127.505 43.0687 127.375 43.5185L123.877 43.2344C124.054 42.4058 124.404 41.6896 124.924 41.0859C125.445 40.4763 126.117 40.0088 126.94 39.6832C127.768 39.3518 128.727 39.1861 129.816 39.1861C130.574 39.1861 131.299 39.2749 131.991 39.4524C132.69 39.63 133.308 39.9052 133.847 40.2781C134.391 40.6509 134.82 41.1303 135.134 41.7163C135.448 42.2963 135.604 42.9917 135.604 43.8026V53H132.018V51.109H131.911C131.692 51.5352 131.399 51.911 131.032 52.2365C130.665 52.5561 130.224 52.8076 129.71 52.9911C129.195 53.1687 128.6 53.2575 127.925 53.2575ZM129.008 50.6474C129.565 50.6474 130.056 50.5379 130.482 50.3189C130.908 50.094 131.242 49.7921 131.485 49.4134C131.728 49.0346 131.849 48.6055 131.849 48.1261V46.679C131.731 46.7559 131.568 46.8269 131.361 46.892C131.16 46.9512 130.932 47.0075 130.677 47.0607C130.423 47.1081 130.168 47.1525 129.914 47.1939C129.659 47.2294 129.428 47.262 129.221 47.2915C128.777 47.3567 128.39 47.4602 128.058 47.6023C127.727 47.7443 127.469 47.9367 127.286 48.1793C127.102 48.4161 127.011 48.712 127.011 49.0671C127.011 49.582 127.197 49.9756 127.57 50.2479C127.949 50.5142 128.428 50.6474 129.008 50.6474ZM138.539 53V39.3636H142.143V41.7695H142.303C142.587 40.9705 143.06 40.3402 143.723 39.8786C144.386 39.4169 145.179 39.1861 146.103 39.1861C147.038 39.1861 147.834 39.4199 148.491 39.8874C149.148 40.3491 149.586 40.9764 149.805 41.7695H149.947C150.225 40.9883 150.728 40.3639 151.456 39.8963C152.19 39.4228 153.057 39.1861 154.057 39.1861C155.33 39.1861 156.362 39.5915 157.155 40.4023C157.954 41.2073 158.354 42.3495 158.354 43.8292V53H154.581V44.5749C154.581 43.8174 154.38 43.2492 153.977 42.8704C153.575 42.4916 153.072 42.3022 152.468 42.3022C151.781 42.3022 151.246 42.5212 150.861 42.9592C150.476 43.3912 150.284 43.9624 150.284 44.6726V53H146.617V44.495C146.617 43.8262 146.425 43.2936 146.04 42.897C145.662 42.5005 145.161 42.3022 144.54 42.3022C144.12 42.3022 143.741 42.4087 143.404 42.6218C143.072 42.829 142.809 43.1219 142.614 43.5007C142.418 43.8736 142.321 44.3116 142.321 44.8146V53H138.539ZM175.624 42.4087V45.4094H167.332V42.4087H175.624ZM191.175 34.5696C192.11 34.5696 193.01 34.7264 193.874 35.0401C194.744 35.3538 195.52 35.8539 196.2 36.5405C196.887 37.227 197.428 38.1385 197.825 39.2749C198.227 40.4053 198.431 41.7932 198.437 43.4386C198.437 44.9833 198.263 46.3623 197.914 47.5756C197.57 48.783 197.076 49.8099 196.431 50.6562C195.786 51.5026 195.008 52.1477 194.096 52.5916C193.185 53.0296 192.167 53.2486 191.042 53.2486C189.829 53.2486 188.758 53.0148 187.828 52.5472C186.899 52.0737 186.15 51.4316 185.582 50.6207C185.02 49.804 184.68 48.8866 184.561 47.8686H188.352C188.5 48.5315 188.811 49.0464 189.284 49.4134C189.758 49.7744 190.344 49.9549 191.042 49.9549C192.226 49.9549 193.125 49.44 193.741 48.4102C194.357 47.3744 194.667 45.9569 194.673 44.1577H194.549C194.277 44.6903 193.91 45.149 193.448 45.5337C192.986 45.9125 192.457 46.2055 191.859 46.4126C191.267 46.6198 190.637 46.7234 189.968 46.7234C188.897 46.7234 187.941 46.4718 187.1 45.9688C186.26 45.4657 185.597 44.7732 185.112 43.8913C184.626 43.0095 184.384 42.0033 184.384 40.8729C184.378 39.6536 184.659 38.5676 185.227 37.6147C185.795 36.6618 186.588 35.9161 187.606 35.3775C188.63 34.833 189.82 34.5637 191.175 34.5696ZM191.202 37.5881C190.604 37.5881 190.071 37.7301 189.604 38.0142C189.142 38.2983 188.775 38.68 188.503 39.1594C188.237 39.6388 188.107 40.1745 188.112 40.7663C188.112 41.3641 188.243 41.9027 188.503 42.3821C188.769 42.8556 189.13 43.2344 189.586 43.5185C190.048 43.7966 190.575 43.9357 191.166 43.9357C191.61 43.9357 192.022 43.8529 192.4 43.6871C192.779 43.5214 193.108 43.2936 193.386 43.0036C193.67 42.7076 193.892 42.3673 194.052 41.9826C194.212 41.5979 194.291 41.1895 194.291 40.7575C194.286 40.1834 194.149 39.6566 193.883 39.1772C193.617 38.6978 193.25 38.3131 192.782 38.0231C192.315 37.7331 191.788 37.5881 191.202 37.5881ZM203.347 50.8871C202.761 50.8871 202.258 50.6799 201.838 50.2656C201.423 49.8513 201.216 49.3482 201.216 48.7564C201.216 48.1764 201.423 47.6792 201.838 47.2649C202.258 46.8506 202.761 46.6435 203.347 46.6435C203.915 46.6435 204.412 46.8506 204.838 47.2649C205.264 47.6792 205.478 48.1764 205.478 48.7564C205.478 49.147 205.377 49.5051 205.176 49.8306C204.98 50.1502 204.723 50.4077 204.403 50.603C204.084 50.7924 203.732 50.8871 203.347 50.8871ZM203.347 41.9648C202.761 41.9648 202.258 41.7577 201.838 41.3434C201.423 40.9291 201.216 40.426 201.216 39.8342C201.216 39.2541 201.423 38.7599 201.838 38.3516C202.258 37.9373 202.761 37.7301 203.347 37.7301C203.915 37.7301 204.412 37.9373 204.838 38.3516C205.264 38.7599 205.478 39.2541 205.478 39.8342C205.478 40.2307 205.377 40.5917 205.176 40.9173C204.98 41.2369 204.723 41.4914 204.403 41.6808C204.084 41.8701 203.732 41.9648 203.347 41.9648ZM215.676 53.3995C214.149 53.3936 212.835 53.0178 211.734 52.272C210.639 51.5263 209.796 50.4461 209.204 49.0316C208.618 47.6171 208.328 45.9155 208.334 43.9268C208.334 41.9441 208.627 40.2544 209.213 38.8576C209.805 37.4608 210.648 36.3984 211.743 35.6705C212.844 34.9366 214.155 34.5696 215.676 34.5696C217.197 34.5696 218.505 34.9366 219.6 35.6705C220.701 36.4044 221.547 37.4697 222.139 38.8665C222.731 40.2573 223.024 41.9441 223.018 43.9268C223.018 45.9214 222.722 47.6259 222.13 49.0405C221.544 50.455 220.704 51.5352 219.609 52.2809C218.514 53.0266 217.203 53.3995 215.676 53.3995ZM215.676 50.2124C216.718 50.2124 217.549 49.6886 218.171 48.641C218.792 47.5934 219.1 46.022 219.094 43.9268C219.094 42.5478 218.952 41.3996 218.668 40.4822C218.39 39.5649 217.993 38.8754 217.478 38.4137C216.969 37.9521 216.368 37.7212 215.676 37.7212C214.64 37.7212 213.812 38.2391 213.19 39.2749C212.569 40.3106 212.255 41.8613 212.249 43.9268C212.249 45.3236 212.388 46.4896 212.666 47.4247C212.95 48.3539 213.35 49.0523 213.865 49.5199C214.38 49.9815 214.983 50.2124 215.676 50.2124ZM232.888 53.3995C231.361 53.3936 230.047 53.0178 228.946 52.272C227.851 51.5263 227.008 50.4461 226.416 49.0316C225.83 47.6171 225.54 45.9155 225.546 43.9268C225.546 41.9441 225.839 40.2544 226.425 38.8576C227.017 37.4608 227.86 36.3984 228.955 35.6705C230.056 34.9366 231.367 34.5696 232.888 34.5696C234.409 34.5696 235.717 34.9366 236.812 35.6705C237.913 36.4044 238.759 37.4697 239.351 38.8665C239.943 40.2573 240.236 41.9441 240.23 43.9268C240.23 45.9214 239.934 47.6259 239.342 49.0405C238.756 50.455 237.916 51.5352 236.821 52.2809C235.726 53.0266 234.415 53.3995 232.888 53.3995ZM232.888 50.2124C233.93 50.2124 234.761 49.6886 235.383 48.641C236.004 47.5934 236.312 46.022 236.306 43.9268C236.306 42.5478 236.164 41.3996 235.88 40.4822C235.602 39.5649 235.205 38.8754 234.69 38.4137C234.181 37.9521 233.58 37.7212 232.888 37.7212C231.852 37.7212 231.023 38.2391 230.402 39.2749C229.781 40.3106 229.467 41.8613 229.461 43.9268C229.461 45.3236 229.6 46.4896 229.878 47.4247C230.162 48.3539 230.562 49.0523 231.077 49.5199C231.592 49.9815 232.195 50.2124 232.888 50.2124ZM248.792 58.1136V39.3636H252.521V41.6541H252.69C252.856 41.2872 253.095 40.9143 253.409 40.5355C253.729 40.1508 254.143 39.8312 254.652 39.5767C255.167 39.3163 255.806 39.1861 256.569 39.1861C257.564 39.1861 258.481 39.4465 259.322 39.9673C260.162 40.4822 260.834 41.2605 261.337 42.3022C261.84 43.3379 262.092 44.6371 262.092 46.1996C262.092 47.7206 261.846 49.005 261.355 50.0526C260.869 51.0942 260.206 51.8844 259.366 52.4229C258.531 52.9556 257.596 53.2219 256.561 53.2219C255.827 53.2219 255.202 53.1006 254.687 52.858C254.178 52.6153 253.761 52.3105 253.436 51.9435C253.11 51.5707 252.862 51.1948 252.69 50.8161H252.574V58.1136H248.792ZM252.495 46.1818C252.495 46.9927 252.607 47.6999 252.832 48.3036C253.057 48.9073 253.382 49.3778 253.808 49.7152C254.235 50.0466 254.752 50.2124 255.362 50.2124C255.978 50.2124 256.498 50.0437 256.925 49.7063C257.351 49.363 257.673 48.8896 257.892 48.2859C258.117 47.6763 258.23 46.9749 258.23 46.1818C258.23 45.3946 258.12 44.7022 257.901 44.1044C257.682 43.5066 257.36 43.0391 256.933 42.7017C256.507 42.3643 255.984 42.1957 255.362 42.1957C254.747 42.1957 254.226 42.3584 253.8 42.6839C253.379 43.0095 253.057 43.4711 252.832 44.0689C252.607 44.6667 252.495 45.371 252.495 46.1818ZM264.613 53V39.3636H268.217V41.7695H268.377C268.661 40.9705 269.135 40.3402 269.797 39.8786C270.46 39.4169 271.253 39.1861 272.177 39.1861C273.112 39.1861 273.908 39.4199 274.565 39.8874C275.222 40.3491 275.66 40.9764 275.879 41.7695H276.021C276.299 40.9883 276.802 40.3639 277.53 39.8963C278.264 39.4228 279.131 39.1861 280.131 39.1861C281.404 39.1861 282.437 39.5915 283.23 40.4023C284.029 41.2073 284.428 42.3495 284.428 43.8292V53H280.655V44.5749C280.655 43.8174 280.454 43.2492 280.051 42.8704C279.649 42.4916 279.146 42.3022 278.542 42.3022C277.856 42.3022 277.32 42.5212 276.935 42.9592C276.551 43.3912 276.358 43.9624 276.358 44.6726V53H272.692V44.495C272.692 43.8262 272.499 43.2936 272.115 42.897C271.736 42.5005 271.236 42.3022 270.614 42.3022C270.194 42.3022 269.815 42.4087 269.478 42.6218C269.146 42.829 268.883 43.1219 268.688 43.5007C268.492 43.8736 268.395 44.3116 268.395 44.8146V53H264.613Z" fill="white"/>
<defs>
<clipPath id="clip0_13_1577">
<rect width="40.8575" height="40.8575" fill="white" transform="translate(0 9)"/>
</clipPath>
</defs>
</svg>
